<?xml version="1.0" encoding="UTF-8" standalone="yes"?>
<svg xmlns="http://www.w3.org/2000/svg" xmlns:xlink="http://www.w3.org/1999/xlink" width="466.784px" height="378.003px" version="1.1" viewBox="-101.316 672.050 233.392 189.002">
  <!--
	Exported with Concepts: Smarter Sketching
	Version: 977 on iOS 14.7
	https://concepts.app/
	-->
  <title>Untitled 26</title>
  <desc>Drawing exported from Concepts: Smarter Sketching</desc>
  <defs></defs>
  <g id="Pen" opacity="1.000">
    <path id="STROKE_dc29e0ec-848d-4e9d-9831-bb8742b9d335" opacity="1.000" fill="none" stroke="#3dd4cf" stroke-width="20.500" stroke-opacity="1.000" stroke-linecap="round" stroke-linejoin="round" d="M 15.937 832.638 L 80.637 771.819 Q 86.278 763.220 86.767 762.046 Q 87.257 760.871 88.372 755.931 Q 89.486 750.990 89.546 749.545 Q 89.606 748.099 88.674 742.427 Q 87.742 736.755 85.141 731.791 Q 82.539 726.826 78.559 722.846 Q 74.579 718.865 69.511 716.145 Q 64.444 713.425 58.579 712.241 Q 52.715 711.057 51.622 711.029 Q 50.529 711.000 44.824 711.795 Q 39.119 712.591 34.071 714.832 Q 29.024 717.073 24.897 720.542 Q 20.770 724.011 18.247 727.642 L 15.723 731.273 Q 9.385 722.722 5.078 719.446 Q 0.770 716.169 -4.412 714.141 Q -9.594 712.112 -14.338 711.556 Q -19.083 711.000 -25.057 711.885 Q -31.031 712.769 -36.260 715.239 Q -41.489 717.709 -45.682 721.488 Q -49.875 725.267 -52.740 730.078 Q -55.605 734.889 -56.852 740.457 Q -58.099 746.024 -58.129 747.062 Q -58.159 748.100 -57.372 753.367 Q -56.584 758.635 -54.389 763.272 Q -52.193 767.908 -50.692 769.864 L -49.191 771.819 L 15.937 832.638 Z"></path>
    <path id="STROKE_01805469-915d-48d7-b535-9a5a99a3e5d7" opacity="1.000" fill="none" stroke="#3dd4cf" stroke-width="12.589" stroke-opacity="1.000" stroke-linecap="round" stroke-linejoin="round" d="M -21.451 731.070 Q -21.500 731.021 -22.096 730.497 Q -22.693 729.973 -23.372 729.724 Q -24.052 729.475 -24.520 729.111 Q -24.987 728.747 -25.315 728.327 Q -25.642 727.907 -25.696 726.873 Q -25.750 725.838 -25.745 725.213 Q -25.740 724.589 -25.897 724.354 Q -26.054 724.120 -26.698 724.118 Q -27.342 724.116 -28.060 724.599 Q -28.778 725.082 -31.969 727.309 Q -35.160 729.537 -37.030 730.629 Q -38.899 731.722 -42.405 733.984 Q -45.910 736.246 -52.151 740.227 Q -51.952 740.528 -49.156 738.855 Q -46.361 737.183 -44.747 735.999 Q -43.133 734.815 -39.747 732.304 Q -36.362 729.793 -34.461 728.261 Q -32.560 726.729 -31.141 725.589 Q -29.723 724.449 -28.273 723.344 Q -26.824 722.238 -24.572 721.698 Q -23.303 722.729 -27.604 726.962 Q -31.905 731.194 -34.376 733.400 Q -36.848 735.605 -37.803 736.496 Q -38.758 737.387 -39.636 738.051 Q -40.514 738.715 -42.315 740.261 Q -44.117 741.807 -45.295 742.856 Q -46.472 743.905 -47.344 745.181 Q -47.265 745.244 -43.474 742.190 Q -39.683 739.136 -36.296 736.458 Q -32.909 733.780 -31.006 732.383 Q -29.104 730.986 -27.669 729.970 Q -26.235 728.954 -24.624 727.767 Q -23.013 726.580 -21.926 725.806 Q -20.839 725.031 -19.744 724.654 Q -19.049 725.261 -21.676 727.532 Q -24.303 729.802 -26.519 731.226 Q -28.734 732.650 -30.404 733.722 Q -32.074 734.794 -35.561 736.988 Q -35.573 736.791 -33.464 734.978 Q -31.356 733.165 -27.769 730.836 Q -24.183 728.507 -22.135 727.257 Q -20.087 726.007 -18.962 725.409 Q -17.838 724.810 -16.438 724.222 Q -15.039 723.634 -13.896 723.400 Q -12.754 723.166 -12.224 723.103 Q -11.694 723.040 -11.293 723.334 Q -10.893 723.629 -10.981 724.064 Q -11.070 724.499 -11.189 724.573 Q -11.308 724.647 -11.476 725.194 Q -11.643 725.741 -33.172 740.520 Q -32.889 740.542 -30.136 738.937 Q -27.383 737.332 -25.092 735.946 Q -22.801 734.560 -20.375 733.242 Q -17.948 731.925 -14.772 730.563 Q -11.595 729.202 -9.482 728.478 Q -7.369 727.754 -6.118 727.470 Q -4.867 727.185 -3.794 727.587 Q -3.198 728.450 -6.160 730.494 Q -9.121 732.537 -10.991 733.806 Q -12.861 735.075 -13.855 735.814 Q -14.848 736.552 -16.621 737.746 Q -18.393 738.940 -20.179 740.013 Q -21.966 741.086 -24.912 743.127 Q -27.858 745.168 -30.238 746.860 Q -32.618 748.552 -34.834 750.285 Q -34.666 750.543 -30.570 748.275 Q -26.475 746.007 -23.470 744.403 Q -20.466 742.798 -17.960 741.655 Q -15.454 740.512 -12.697 739.396 Q -9.940 738.279 -8.309 737.693 Q -6.679 737.107 -5.741 736.699 Q -4.803 736.291 -1.624 736.102 Q -1.059 736.674 -3.623 738.491 Q -6.187 740.308 -11.638 744.056 Q -17.089 747.804 -20.599 750.209 Q -24.110 752.613 -26.362 754.534 Q -28.614 756.455 -29.879 757.526 Q -31.144 758.597 -31.582 760.185 Q -31.295 760.694 -28.822 760.112 Q -26.350 759.531 -22.976 758.074 Q -19.603 756.618 -17.588 755.710 Q -15.574 754.801 -14.187 754.044 Q -12.799 753.286 -7.964 751.317 Q -3.129 749.348 -0.159 748.187 Q 2.811 747.026 6.410 745.690 Q 10.009 744.355 12.814 743.480 Q 15.619 742.605 18.009 742.258 Q 20.400 741.911 22.666 742.122 Q 23.887 743.369 19.258 746.597 Q 14.628 749.824 11.584 751.866 Q 8.539 753.907 7.092 754.912 Q 5.645 755.917 5.023 756.337 Q 4.400 756.756 3.761 757.245 Q 3.121 757.733 1.887 758.442 Q 0.653 759.151 -2.096 761.133 Q -4.846 763.116 -6.188 764.224 Q -7.529 765.332 -8.607 766.238 Q -9.684 767.145 -10.183 768.394 Q -9.983 769.159 -5.213 767.019 Q -0.443 764.879 2.464 763.433 Q 5.371 761.987 6.809 761.337 Q 8.248 760.688 14.512 757.877 Q 20.776 755.067 24.538 753.458 Q 28.300 751.850 30.151 751.187 Q 32.003 750.524 33.515 749.983 Q 35.027 749.443 39.314 748.771 L 39.400 748.886 Q 39.574 749.434 33.250 753.091 Q 26.926 756.748 22.217 759.356 Q 17.508 761.963 14.517 763.792 Q 11.526 765.620 8.911 767.120 Q 6.296 768.621 4.153 769.896 Q 2.010 771.172 0.326 772.310 Q -1.357 773.448 -2.729 774.435 Q -4.100 775.422 -4.916 776.806 Q -4.661 777.077 -3.281 776.893 Q -1.902 776.710 4.260 773.882 Q 10.423 771.053 13.703 769.623 Q 16.983 768.192 18.977 767.353 Q 20.972 766.514 25.321 764.589 Q 29.671 762.664 34.550 760.847 Q 39.430 759.030 44.338 757.508 Q 49.245 755.987 52.527 755.012 Q 55.809 754.036 59.580 753.962 Q 60.108 754.717 58.470 756.064 Q 56.831 757.411 52.559 759.877 Q 48.288 762.343 45.479 764.023 Q 42.671 765.703 38.576 767.995 Q 34.481 770.288 30.374 772.761 Q 26.267 775.234 21.292 778.261 Q 16.317 781.287 12.646 783.774 Q 8.975 786.261 7.131 787.463 Q 5.286 788.665 3.450 789.985 Q 1.613 791.306 -0.192 793.760 Q 0.010 794.498 4.590 792.073 Q 9.170 789.649 12.648 787.962 Q 16.127 786.276 18.095 785.265 Q 20.063 784.254 24.071 782.202 Q 28.078 780.150 32.855 778.174 Q 37.633 776.198 40.045 775.233 Q 42.458 774.269 44.064 773.683 Q 45.671 773.096 46.511 772.758 Q 47.350 772.419 50.350 771.349 Q 53.350 770.278 57.397 769.996 Q 57.143 770.923 51.040 774.395 Q 44.938 777.868 41.306 779.926 Q 37.674 781.984 35.635 783.238 Q 33.597 784.491 29.591 786.885 Q 25.585 789.278 23.059 791.003 Q 20.533 792.727 17.234 794.927 Q 13.935 797.126 10.996 799.264 Q 8.056 801.401 6.224 802.940 Q 4.393 804.479 3.337 806.096 Q 3.274 806.937 8.718 803.987 Q 14.162 801.038 17.663 799.211 Q 21.164 797.385 22.711 796.664 Q 24.259 795.944 25.797 795.196 Q 27.335 794.447 29.733 793.219 Q 32.132 791.991 33.781 791.288 Q 35.430 790.585 36.763 790.495 Q 36.848 791.405 33.748 793.751 Q 30.648 796.096 28.861 797.305 Q 27.074 798.514 25.687 799.550 Q 24.300 800.586 19.937 803.730 Q 15.573 806.874 13.319 808.518 Q 11.065 810.161 9.897 811.089 Q 8.729 812.018 8.144 812.976 Q 8.239 813.216 10.389 812.733 Q 12.538 812.250 15.293 811.395 Q 18.047 810.540 19.509 810.003 Q 20.970 809.466 22.495 808.700 Q 24.020 807.935 25.109 807.411 Q 26.197 806.887 29.752 804.579 Q 29.884 804.670 27.765 806.217 Q 25.647 807.764 15.408 815.893 Q 15.691 816.140 19.923 814.123 Q 24.156 812.105 28.091 810.345 Q 32.027 808.584 34.012 807.708 Q 35.998 806.833 37.264 806.234 Q 38.531 805.635 43.279 803.760 Q 42.863 804.107 39.375 805.923 Q 35.887 807.739 31.998 808.952 Q 31.743 808.206 34.363 806.195 Q 36.983 804.183 39.660 801.623 Q 42.337 799.063 44.122 797.459 Q 45.907 795.855 48.525 792.969 Q 51.144 790.082 53.553 787.494 Q 55.963 784.906 58.309 781.893 Q 60.655 778.879 62.742 776.187 Q 64.828 773.495 65.943 772.113 Q 67.057 770.732 69.983 768.237 Q 72.910 765.743 74.389 764.398 Q 75.868 763.054 77.751 760.978 Q 79.634 758.902 81.058 757.328 Q 82.482 755.753 82.981 753.217 Q 82.567 752.484 79.611 754.385 Q 76.655 756.285 74.442 757.690 Q 72.229 759.095 70.760 760.091 Q 69.292 761.088 65.374 763.886 Q 61.457 766.685 59.012 768.338 Q 56.567 769.991 55.351 770.859 Q 54.135 771.728 53.174 772.487 Q 52.213 773.245 51.343 773.965 Q 50.473 774.684 48.403 776.398 Q 46.332 778.111 45.028 779.245 Q 43.723 780.379 38.610 785.516 Q 33.498 790.653 28.712 795.350 Q 23.926 800.048 17.619 805.980 Q 17.703 805.985 22.559 802.072 Q 27.414 798.160 30.367 795.819 Q 33.320 793.478 35.058 791.961 Q 36.796 790.445 37.684 789.672 Q 38.572 788.900 39.651 787.980 Q 40.731 787.060 42.961 785.026 Q 45.192 782.992 48.337 779.827 Q 51.482 776.662 53.351 774.550 Q 55.219 772.438 56.082 771.526 Q 56.946 770.613 59.586 767.265 Q 62.226 763.917 63.796 761.883 Q 65.366 759.849 66.769 758.057 Q 68.172 756.264 68.706 753.552 Q 68.596 753.312 67.745 753.744 Q 66.893 754.175 64.530 756.277 Q 62.166 758.379 59.413 761.798 Q 56.660 765.217 54.740 768.012 Q 52.821 770.806 51.122 773.412 Q 49.422 776.018 47.684 778.330 Q 45.945 780.643 44.859 782.051 Q 43.773 783.458 42.073 785.476 Q 40.374 787.493 37.001 791.308 Q 33.629 795.124 31.535 797.313 Q 29.441 799.502 28.324 801.502 Q 28.586 801.631 30.668 799.934 Q 32.749 798.237 35.014 796.520 Q 37.278 794.804 38.454 793.781 Q 39.630 792.758 42.951 789.951 Q 46.271 787.144 48.085 785.566 Q 49.898 783.988 51.773 782.148 Q 53.647 780.307 55.832 778.074 Q 58.016 775.840 59.507 773.789 Q 60.997 771.737 62.279 769.954 Q 63.560 768.170 64.942 765.839 Q 66.324 763.508 67.337 761.343 Q 68.350 759.177 69.167 756.469 Q 69.985 753.760 70.441 751.331 Q 70.898 748.901 71.042 747.210 Q 71.187 745.519 71.112 744.056 Q 71.038 742.593 70.351 741.209 Q 69.664 739.826 68.124 737.935 Q 66.585 736.043 65.553 734.731 Q 64.521 733.419 63.334 732.358 Q 62.147 731.296 59.550 730.305 Q 56.954 729.314 55.072 728.830 Q 53.189 728.347 51.128 728.335 Q 49.067 728.323 45.794 729.177 Q 42.522 730.030 40.350 730.736 Q 38.179 731.442 36.601 732.335 Q 35.023 733.228 32.206 735.594 Q 29.388 737.960 27.018 739.918 Q 24.649 741.877 22.316 743.549 Q 22.024 743.456 26.002 739.356 Q 29.979 735.255 33.135 732.236 Q 36.290 729.217 38.827 726.916 Q 41.363 724.616 45.552 721.451 Q 45.786 721.186 42.472 724.194 Q 39.159 727.202 36.181 729.672 Q 33.204 732.142 30.819 734.273 Q 28.434 736.405 25.566 738.673 Q 22.698 740.941 20.791 742.353 Q 18.884 743.766 16.225 746.700 Q 16.300 746.719 16.697 746.595 Q 17.093 746.471 19.256 744.899 Q 21.419 743.326 22.827 742.293 Q 24.236 741.260 25.431 740.450 Q 26.627 739.640 27.731 738.867 Q 28.835 738.094 29.513 737.591 Q 30.191 737.089 32.284 735.511 Q 34.376 733.933 37.475 732.122 Q 40.574 730.311 42.218 729.384 Q 43.863 728.457 46.129 727.300 Q 48.395 726.143 49.924 725.567 Q 51.453 724.991 52.383 724.835 Q 53.312 724.679 53.988 724.687 Q 54.664 724.694 55.029 725.226 Q 55.394 725.758 55.432 727.095 Q 55.470 728.433 53.630 731.057 Q 51.789 733.682 49.033 736.672 Q 46.277 739.661 44.423 741.390 Q 42.569 743.119 39.929 745.575 Q 37.289 748.032 26.573 757.865 Q 26.713 757.694 29.210 755.414 Q 31.706 753.135 33.978 751.467 Q 36.250 749.800 38.564 748.257 Q 40.879 746.714 42.284 745.792 Q 43.689 744.869 45.688 743.653 Q 47.688 742.437 50.633 740.973 Q 53.577 739.509 55.486 738.753 Q 57.394 737.998 58.674 737.681 Q 59.953 737.365 60.892 737.732 Q 61.444 738.748 58.376 741.335 Q 55.307 743.922 52.104 746.123 Q 48.900 748.323 45.641 750.309 Q 42.382 752.295 40.654 753.418 Q 38.926 754.541 35.274 756.819 Q 31.622 759.096 27.229 760.986 Q 26.890 760.919 29.995 758.463 Q 33.101 756.006 35.857 754.122 Q 38.613 752.237 40.209 751.265 Q 41.804 750.292 44.215 749.021 Q 46.625 747.749 49.385 746.460 Q 52.144 745.171 54.064 744.531 Q 55.984 743.891 57.639 743.604 Q 59.294 743.316 60.224 743.380 Q 61.155 743.444 61.472 743.727 Q 61.789 744.010 61.957 744.885 Q 62.125 745.759 61.093 747.170 Q 60.060 748.581 59.256 749.336 Q 58.452 750.092 55.599 752.424 Q 52.746 754.755 51.015 756.085 Q 49.284 757.414 48.587 758.060 Q 47.891 758.707 47.611 759.209 Q 47.332 759.712 47.407 759.950 Q 47.481 760.189 47.512 760.188 Q 47.542 760.186 48.629 760.380 Q 49.716 760.574 52.548 759.439 Q 55.380 758.304 56.706 757.617 Q 58.032 756.930 59.754 755.890 Q 61.476 754.850 64.528 752.793 Q 67.580 750.737 69.456 749.401 Q 71.331 748.065 73.393 746.453 Q 75.454 744.840 76.919 743.500 Q 78.383 742.160 79.025 741.413 Q 79.667 740.666 79.909 740.223 Q 80.152 739.781 80.352 739.170 Q 80.551 738.559 78.979 737.340 Q 77.406 736.121 75.968 735.038 Q 74.530 733.954 73.288 732.813 Q 72.047 731.672 70.354 728.243 L 70.340 728.243 Q 70.107 728.225 70.912 730.106 Q 71.718 731.987 72.292 733.650 Q 72.866 735.314 73.233 737.046 Q 73.600 738.777 73.738 740.120 Q 73.876 741.463 73.861 743.220 Q 73.846 744.976 73.849 746.165 Q 73.852 747.354 72.883 749.644 Q 71.914 751.933 71.213 753.308 Q 70.512 754.682 69.579 756.073 Q 68.645 757.463 67.218 758.682 Q 65.791 759.901 64.732 760.406 Q 63.672 760.910 62.829 761.086 Q 61.985 761.262 61.067 761.282 Q 60.148 761.302 59.357 760.702 Q 58.567 760.102 57.915 759.131 Q 57.262 758.160 56.326 754.411 Q 55.389 750.663 54.759 748.397 Q 54.129 746.130 53.594 744.772 Q 53.058 743.414 52.587 742.597 Q 52.116 741.780 51.791 741.312 Q 51.466 740.843 50.654 740.149 Q 49.841 739.456 48.967 739.035 Q 48.092 738.614 46.486 738.379 Q 44.879 738.145 43.339 738.060 Q 41.799 737.975 39.569 738.837 Q 37.338 739.699 35.731 740.664 Q 34.124 741.630 31.874 743.476 Q 29.624 745.322 27.476 747.186 Q 25.328 749.050 23.554 750.666 Q 21.781 752.282 20.822 753.196 Q 19.862 754.111 17.742 756.154 Q 15.622 758.197 14.313 759.469 Q 13.004 760.740 12.314 761.932 Q 11.625 763.124 11.457 764.369 Q 11.850 764.974 14.473 762.117 Q 17.096 759.259 19.779 756.116 Q 22.461 752.972 23.983 751.280 Q 25.505 749.587 27.318 747.601 Q 29.131 745.615 31.301 743.447 Q 33.472 741.279 34.835 740.030 Q 36.198 738.782 37.594 737.662 Q 37.889 737.688 35.276 740.454 Q 32.662 743.219 30.800 745.297 Q 28.939 747.375 25.997 750.638 Q 23.056 753.900 21.438 755.824 Q 19.820 757.748 18.977 758.637 Q 18.134 759.527 16.341 761.574 Q 14.549 763.621 13.206 765.171 Q 11.862 766.722 10.026 768.818 Q 8.190 770.915 7.154 772.297 Q 6.118 773.680 5.698 774.652 Q 5.278 775.624 5.435 776.541 Q 5.703 776.727 6.757 776.539 Q 7.811 776.352 12.214 772.766 Q 16.617 769.180 19.829 766.813 Q 23.041 764.445 24.543 763.409 Q 26.046 762.373 27.204 761.646 Q 28.362 760.920 29.227 760.400 Q 30.091 759.879 31.432 759.119 Q 32.772 758.359 34.065 757.863 Q 35.357 757.367 36.327 757.236 Q 37.296 757.105 37.851 757.188 Q 38.406 757.271 38.636 757.963 Q 38.866 758.655 38.762 759.309 Q 38.659 759.964 38.552 760.356 Q 38.445 760.749 37.499 762.101 Q 36.554 763.453 35.980 764.300 Q 35.407 765.148 31.827 768.703 Q 28.247 772.258 26.221 774.120 Q 24.194 775.982 22.750 777.276 Q 21.307 778.571 19.717 780.032 Q 18.127 781.494 16.907 782.602 Q 15.686 783.709 12.472 786.717 Q 9.257 789.724 6.627 792.368 Q 3.997 795.012 2.341 797.856 Q 2.436 798.426 5.359 795.796 Q 8.281 793.166 10.916 791.143 Q 13.552 789.121 15.146 788.106 Q 16.740 787.090 18.372 786.059 Q 20.003 785.028 21.382 784.176 Q 22.760 783.325 24.332 782.374 Q 25.904 781.423 27.957 781.207 Q 28.684 781.832 24.886 786.646 Q 21.089 791.459 18.678 794.173 Q 16.267 796.886 14.990 798.115 Q 13.714 799.344 12.927 800.070 Q 12.140 800.796 11.180 801.217 Q 10.220 801.638 9.221 801.717 Q 8.222 801.796 7.620 801.410 Q 7.018 801.023 5.682 799.837 Q 4.346 798.650 1.265 797.135 Q -1.816 795.619 -4.158 794.189 Q -6.500 792.759 -7.539 792.039 Q -8.577 791.318 -10.692 789.772 Q -12.807 788.225 -14.298 787.008 Q -15.788 785.792 -17.136 784.669 Q -18.483 783.546 -20.255 782.192 Q -22.027 780.838 -23.578 779.606 Q -25.128 778.374 -26.309 777.315 Q -27.491 776.256 -28.594 775.049 Q -29.698 773.841 -30.837 772.373 Q -31.976 770.904 -33.564 769.037 Q -35.151 767.170 -36.342 765.897 Q -37.532 764.624 -38.591 763.623 Q -39.650 762.622 -41.112 760.915 Q -42.573 759.208 -43.389 757.928 Q -44.205 756.648 -45.131 754.958 Q -46.056 753.268 -46.999 751.515 Q -47.941 749.763 -48.473 748.364 Q -49.005 746.965 -49.184 746.155 Q -49.363 745.345 -49.542 743.771 Q -49.721 742.196 -49.357 740.551 Q -48.992 738.907 -48.565 737.986 Q -48.138 737.066 -47.859 736.397 Q -47.579 735.729 -46.633 734.232 Q -45.688 732.735 -44.254 731.363 Q -42.821 729.991 -41.677 729.264 Q -40.534 728.536 -39.659 728.264 Q -38.784 727.991 -38.267 727.968 Q -37.750 727.946 -37.457 728.069 Q -37.163 728.193 -36.908 729.510 Q -36.652 730.827 -37.352 733.387 Q -38.052 735.946 -39.240 738.522 Q -40.428 741.098 -41.504 743.444 Q -42.580 745.790 -43.469 747.756 Q -44.358 749.722 -45.122 751.759 Q -45.886 753.796 -46.380 755.851 Q -46.875 757.907 -46.962 759.609 Q -47.049 761.312 -46.910 762.309 Q -46.772 763.306 -46.516 763.956 Q -46.260 764.606 -45.688 765.460 Q -45.117 766.314 -44.195 767.101 Q -43.273 767.888 -42.027 768.346 Q -40.781 768.803 -37.879 768.348 Q -37.539 768.006 -37.807 766.133 Q -38.076 764.260 -39.265 762.100 Q -40.453 759.940 -41.434 758.266 Q -42.415 756.591 -42.938 754.420 Q -43.461 752.249 -43.615 749.729 Q -43.768 747.210 -43.284 744.324 Q -42.800 741.439 -41.850 738.449 Q -40.899 735.458 -39.504 732.690 Q -38.108 729.921 -36.807 728.028 Q -35.505 726.134 -34.847 725.097 Q -34.190 724.060 -32.926 722.503 Q -31.663 720.947 -30.673 719.869 Q -29.683 718.790 -28.698 718.480 Q -27.714 718.169 -25.666 718.916 Q -23.618 719.663 -21.569 720.089 Q -19.519 720.515 -16.126 721.616 Q -12.732 722.717 -10.436 723.740 Q -8.139 724.763 -6.544 725.589 Q -4.949 726.414 -2.734 727.502 Q -0.520 728.589 1.201 729.549 Q 2.921 730.508 4.535 731.883 Q 6.149 733.257 7.415 734.970 Q 8.681 736.684 9.527 740.315 Q 10.373 743.945 10.597 745.767 Q 10.821 747.588 11.000 748.355 Q 11.179 749.121 11.477 749.987 Q 11.775 750.852 12.208 751.475 Q 12.641 752.099 13.263 752.226 Q 13.487 752.095 13.724 749.711 Q 13.961 747.327 13.882 745.677 Q 13.804 744.027 12.993 741.670 Q 12.182 739.314 10.691 737.049 Q 9.199 734.784 7.315 732.844 Q 5.431 730.904 3.196 729.109 Q 0.961 727.315 -1.178 726.009 Q -3.318 724.702 -5.787 723.732 Q -8.256 722.761 -10.526 722.296 Q -12.795 721.831 -15.269 721.743 Q -17.743 721.654 -19.074 721.629 Q -20.406 721.604 -22.163 722.028 Q -23.921 722.451 -25.810 723.292 Q -27.700 724.134 -29.980 725.879 Q -32.260 727.624 -34.451 730.102 Q -36.642 732.581 -38.438 735.484 Q -40.233 738.388 -41.138 740.218 Q -42.042 742.049 -42.690 743.816 Q -43.338 745.584 -43.571 747.159 Q -43.803 748.734 -43.804 750.096 Q -43.804 751.458 -43.169 752.542 Q -42.535 753.626 -41.925 754.179 Q -41.315 754.732 -40.204 755.293 Q -39.092 755.855 -37.444 756.006 Q -35.795 756.156 -34.387 756.104 Q -32.979 756.052 -30.785 755.111 Q -28.591 754.170 -27.405 753.445 Q -26.219 752.721 -25.138 752.049 Q -24.058 751.376 -21.349 749.432 Q -18.640 747.488 0.330 730.504 Q 0.151 730.312 -1.469 731.329 Q -3.089 732.347 -5.258 734.111 Q -7.428 735.876 -9.268 737.294 Q -11.108 738.713 -13.885 740.959 Q -16.661 743.206 -19.292 745.575 Q -21.924 747.944 -24.422 750.213 Q -26.921 752.482 -28.563 754.471 Q -30.206 756.460 -30.889 757.353 Q -31.573 758.245 -31.809 758.787 Q -32.046 759.329 -32.049 759.866 Q -31.513 760.638 -27.773 757.834 Q -24.034 755.030 -21.592 753.191 Q -19.150 751.352 -17.910 750.566 Q -16.671 749.781 -16.076 749.330 Q -15.481 748.879 -12.388 747.038 Q -9.295 745.197 -7.332 744.052 Q -5.370 742.908 -3.902 742.190 Q -2.434 741.473 -1.157 741.509 Q -0.101 742.433 -6.585 748.618 Q -13.070 754.804 -16.745 757.972 Q -20.420 761.140 -22.469 762.987 Q -24.518 764.834 -26.463 767.619 Q -26.331 768.091 -24.356 766.943 Q -22.380 765.796 -19.472 763.888 Q -16.564 761.980 -13.152 760.103 Q -9.740 758.225 -7.829 757.181 Q -5.918 756.137 -3.563 754.867 Q -1.208 753.596 0.983 752.580 Q 3.174 751.563 6.262 751.204 Q 7.239 752.022 2.454 755.836 Q -2.332 759.649 -6.433 762.875 Q -10.535 766.100 -12.534 767.637 Q -14.533 769.173 -17.064 771.252 Q -19.596 773.331 -20.979 774.540 Q -22.363 775.748 -23.202 776.672 Q -22.782 776.641 -20.771 775.311 Q -18.760 773.980 -17.609 773.176 Q -16.459 772.371 -13.648 770.735 Q -10.838 769.099 -7.458 767.275 Q -4.078 765.450 -1.494 764.069 Q 1.090 762.687 3.456 761.544 Q 5.822 760.401 8.925 758.974 Q 12.027 757.547 15.566 756.964 Q 15.737 757.254 15.006 758.235 Q 14.275 759.217 11.994 761.366 Q 9.714 763.515 7.156 765.648 Q 4.597 767.782 1.834 770.011 Q -0.930 772.240 -2.739 773.785 Q -4.547 775.329 -6.855 777.222 Q -9.164 779.115 -10.763 780.453 Q -12.362 781.792 -13.151 782.576 Q -13.939 783.361 -14.293 783.914 Q -14.646 784.468 -14.629 785.043 Q -13.735 785.755 -9.558 783.464 Q -5.382 781.174 -1.062 779.058 Q 3.258 776.942 5.994 775.699 Q 8.730 774.456 13.160 773.600 Q 13.559 773.648 12.726 775.036 Q 11.892 776.425 9.705 778.387 Q 7.518 780.349 5.644 782.171 Q 3.769 783.993 2.006 785.655 Q 0.244 787.317 -0.841 788.280 Q -1.926 789.243 -1.988 790.394 Q -1.635 790.977 2.120 789.676 Q 5.875 788.375 9.127 787.054 Q 12.380 785.733 14.296 784.979 Q 16.213 784.224 17.736 782.973 Q 17.592 782.307 13.716 783.386 Q 9.840 784.464 6.330 785.206 Q 2.819 785.949 0.846 786.200 Q -1.126 786.451 -3.432 786.554 Q -5.739 786.656 -7.726 786.502 Q -9.712 786.348 -11.763 785.683 Q -13.814 785.018 -15.172 784.139 Q -16.530 783.260 -17.844 782.125 Q -19.158 780.990 -20.535 779.359 Q -21.912 777.727 -24.061 774.280 Q -26.211 770.833 -27.799 768.669 Q -29.386 766.504 -30.478 764.716 Q -31.570 762.927 -32.460 761.133 Q -33.350 759.338 -34.156 757.456 Q -34.962 755.574 -35.689 752.710 Q -36.416 749.845 -36.712 748.305 Q -37.009 746.764 -37.030 745.326 Q -37.050 743.888 -37.069 742.971 Q -37.088 742.055 -36.289 740.593 Q -35.491 739.131 -34.909 738.290 Q -34.327 737.449 -33.162 736.338 Q -31.996 735.227 -31.048 734.689 Q -30.099 734.151 -29.290 733.961 Q -28.482 733.771 -28.031 734.104 Q -27.581 734.436 -27.354 735.849 Q -27.127 737.263 -27.472 739.083 Q -27.818 740.903 -28.898 743.619 Q -29.977 746.336 -30.636 748.024 Q -31.296 749.713 -31.912 751.262 Q -32.528 752.811 -32.980 754.425 Q -33.432 756.040 -33.557 757.180 Q -33.683 758.320 -33.764 759.074 Q -33.845 759.828 -33.365 760.687 Q -32.885 761.546 -31.439 761.619 Q -29.993 761.692 -28.972 761.623 Q -27.952 761.554 -26.053 760.703 Q -24.155 759.852 -22.345 758.697 Q -20.534 757.542 -19.059 755.928 Q -17.584 754.314 -16.996 753.376 Q -16.407 752.437 -16.078 751.760 Q -15.749 751.082 -15.561 750.088 Q -15.373 749.094 -15.408 748.588 Q -15.443 748.081 -16.143 747.775 Q -16.844 747.469 -17.908 748.044 Q -18.973 748.619 -20.420 749.985 Q -21.868 751.350 -22.843 752.717 Q -23.817 754.083 -24.317 755.467 Q -24.818 756.852 -24.960 758.524 Q -25.103 760.197 -24.492 761.868 Q -23.880 763.539 -23.276 764.648 Q -22.673 765.758 -19.432 768.987 Q -16.191 772.217 -12.617 775.519 Q -12.852 775.286 -17.338 771.062 Q -17.077 771.309 -15.000 773.277 Q -12.923 775.246 -11.769 776.296 "></path>
    <path id="STROKE_2e283566-5e80-4437-b131-3f26fc1b00f1" opacity="1.000" fill="none" stroke="#3dd4cf" stroke-width="6.250" stroke-opacity="1.000" stroke-linecap="round" stroke-linejoin="round" d="M 15.704 853.350 L 111.995 766.051 Q 120.389 753.709 121.118 752.023 Q 121.847 750.337 123.506 743.245 Q 125.165 736.153 125.254 734.079 Q 125.343 732.005 123.956 723.863 Q 122.569 715.721 118.697 708.595 Q 114.825 701.469 108.902 695.756 Q 102.978 690.042 95.436 686.138 Q 87.894 682.233 79.167 680.534 Q 70.439 678.835 68.812 678.793 Q 67.186 678.752 58.695 679.894 Q 50.205 681.036 42.693 684.252 Q 35.181 687.469 29.039 692.449 Q 22.897 697.429 19.142 702.640 L 15.386 707.852 Q 5.953 695.579 -0.458 690.875 Q -6.868 686.172 -14.580 683.261 Q -22.292 680.349 -29.353 679.551 Q -36.415 678.753 -45.306 680.022 Q -54.198 681.292 -61.979 684.838 Q -69.761 688.383 -76.001 693.807 Q -82.241 699.231 -86.506 706.137 Q -90.770 713.043 -92.625 721.034 Q -94.481 729.026 -94.526 730.515 Q -94.571 732.005 -93.399 739.566 Q -92.227 747.127 -88.960 753.782 Q -85.692 760.438 -83.458 763.245 L -81.223 766.051 L 15.704 853.350 Z"></path>
    <path id="STROKE_f1cc7c41-f811-4a79-abd6-68ad9e72bf02" opacity="1.000" fill="none" stroke="#3dd4cf" stroke-width="6.299" stroke-opacity="1.000" stroke-linecap="round" stroke-linejoin="round" d="M 64.622 752.730 Q 66.316 748.508 66.336 748.407 Q 66.356 748.306 67.467 746.803 Q 68.579 745.299 70.078 743.526 Q 71.577 741.753 72.793 740.022 Q 74.009 738.290 74.540 737.327 Q 75.070 736.364 75.467 735.025 Q 75.864 733.685 75.858 732.749 Q 75.851 731.813 75.515 730.742 Q 75.179 729.670 73.552 728.157 Q 71.925 726.643 70.162 725.664 Q 68.399 724.685 67.382 724.141 Q 66.366 723.596 64.400 722.794 Q 62.434 721.991 61.010 721.508 Q 59.586 721.025 57.079 720.479 Q 54.573 719.932 52.078 719.886 Q 49.583 719.840 48.015 719.992 Q 46.448 720.144 44.174 720.753 Q 41.899 721.361 39.896 722.271 Q 37.893 723.180 36.485 724.137 Q 35.078 725.094 34.367 725.619 Q 33.655 726.143 31.862 727.748 Q 30.068 729.353 29.140 730.219 Q 28.211 731.084 27.445 732.048 Q 26.680 733.011 26.632 734.204 Q 26.607 734.350 27.571 734.263 Q 28.536 734.176 29.988 733.629 Q 31.440 733.081 34.333 731.861 Q 37.225 730.640 40.042 729.083 Q 42.858 727.525 44.771 726.416 Q 46.685 725.306 47.863 724.679 Q 49.041 724.051 49.755 723.615 Q 50.470 723.179 53.191 721.921 Q 55.913 720.663 58.633 719.760 Q 61.353 718.856 64.013 718.649 Q 65.043 719.691 57.321 724.637 Q 49.599 729.583 41.384 734.423 Q 41.536 734.529 48.463 732.187 Q 55.391 729.844 59.794 728.326 Q 64.197 726.808 66.541 726.048 Q 68.885 725.288 70.545 724.892 Q 72.204 724.495 73.632 724.785 Q 74.358 726.294 71.039 728.210 Q 67.719 730.125 65.726 730.923 Q 63.732 731.720 62.661 732.203 Q 61.590 732.685 60.739 733.037 Q 59.889 733.390 57.688 734.379 Q 55.486 735.369 49.459 738.332 Q 49.412 738.800 51.825 739.776 Q 51.461 739.630 51.025 739.498 Q 51.825 739.776 52.261 739.908 "></path>
  </g>
</svg>